/* XPM */
static const char * xpm[] = {
"16 16 5 1",
"   c None",
".  c #3333FF",
"+  c #ffa552",
"@  c #ffcea5",
"#  c #ffb573",
"................",
".++++++++##@##+.",
".+++++++##@##++.",
".++++++##@##+++.",
".+++++##@##++++.",
".++++##@##+++++.",
".+++##@##++++++.",
".++##@##+++++##.",
"......++++++##@.",
"    $.+++++##@#.",
"     .++++##@##.",
"     .+++##@##+.",
"     $.+##@##++.",
"      $..@##+++.",
"        $.......",
"                "};
