/* XPM */
static const char * xpm[] = {
"16 16 9 1",
"   c None",
".  c #3333FF",
"+  c #ffa552",
"@  c #ffcea5",
"#  c #ffb573",
"~  c #ffffff",
",  c #9999ff",
";  c #de5200",
":  c #ffd652",
"................",
".~~~~~~~.~~~~~~.",
".~+++,.....,#@#.",
".~+++++;.:~#@##.",
".~+++,.....,##+.",
".~+++++;.:~##++.",
".~+++,.....,#++.",
".~+++++;.:~#+++.",
".~+++,.....,+++.",
".~++##@;.:~++++.",
".~+##,.....,+++.",
".~##@##;.:~++++.",
".~#@#,.....,+++.",
".~@##++;.:~++++.",
"................",
"               .",
};