<?xml version="1.0" encoding="UTF-8"?>
<svg id="svg8" version="1.1" width="100" height="100" xmlns="http://www.w3.org/2000/svg" xmlns:xlink="http://www.w3.org/1999/xlink" >
  <defs id="d001">
    <linearGradient id="lg001">
      <stop id="s001" style="stop-color:#626262;stop-opacity:0" offset="0" />
      <stop id="s002" style="stop-color:#494949;stop-opacity:1" offset="1" />
    </linearGradient>
    <linearGradient id="lg002" x1="30.5" y1="47.0" x2="76.5" y2="47.0" xlink:href="#lg001" gradientUnits="userSpaceOnUse" gradientTransform="matrix(0.35,0,0,1, 29,-1)" />
    <linearGradient id="lg003" x1="30.5" y1="47.0" x2="76.5" y2="47.0" xlink:href="#lg001" gradientUnits="userSpaceOnUse" gradientTransform="matrix(0.31,0,0,1,-46,-97)" />
    <linearGradient id="lg004" x1="30.5" y1="47.0" x2="76.5" y2="47.0" xlink:href="#lg001" gradientUnits="userSpaceOnUse" gradientTransform="matrix(0.42,0,0,1,-85.5,-97)" />
  </defs>
  <rect id="r001" x="37" y="5" width="18" height="86" style="fill:url(#lg002);stroke:none" />
  <rect id="r002" x="-39" y="-91" width="16" height="86" style="fill:url(#lg003);stroke:none" transform="rotate(180)" />
  <rect id="r003" x="-76" y="-91" width="21" height="86" style="fill:url(#lg004);stroke:none" transform="scale(-1)" />
  <path id="p001" d="m 75.5,5.5 0,85.5 -53,0 V 5.5 Z" style="fill:none;stroke:black;stroke-width:2;" />
  <g id="g002">
    <path id="p002" d="M 22.5,34 15,40.5 84,19 75.5,13 Z" style="fill:#e2e2e2;stroke:none" />
    <path id="p003" d="m 15,40.5 7.5,4.5 53,-21 8.5,-5.5 z" style="fill:#424242;stroke:none" />
    <path id="p004" d="m 22.5,34 -7.5,6.5 7.5,4.5 53,-21 8.5,-5.5 -8.5,-5.5 z" style="fill:none;stroke:black;stroke-width:2;" />
  </g>
  <g id="g003" transform="translate(0,11.338582)">
    <path id="p005" d="M 22.5,34 15,40.5 84,19 75.5,13 Z" style="fill:#e2e2e2;stroke:none" />
    <path id="p006" d="m 15,40.5 7.5,4.5 53,-21 8.5,-5.5 z" style="fill:#424242;stroke:none" />
    <path id="p007" d="m 22.5,34 -7.5,6.5 7.5,4.5 53,-21 8.5,-5.5 -8.5,-5.5 z" style="fill:none;stroke:black;stroke-width:2;" />
  </g>
  <g id="g003" transform="translate(0,22.677164)">
    <path id="p008" d="M 22.5,34 15,40.5 84,19 75.5,13 Z" style="fill:#e2e2e2;stroke:none" />
    <path id="p009" d="m 15,40.5 7.5,4.5 53,-21 8.5,-5.5 z" style="fill:#424242;stroke:none" />
    <path id="p010" d="m 22.5,34 -7.5,6.5 7.5,4.5 53,-21 8.5,-5.5 -8.5,-5.5 z" style="fill:none;stroke:black;stroke-width:2;" />
  </g>
  <g id="g003" transform="translate(0,34.015746)" >
    <path id="p011" d="M 22.5,34 15,40.5 84,19 75.5,13 Z" style="fill:#e2e2e2;stroke:none" />
    <path id="p012" d="m 15,40.5 7.5,4.5 53,-21 8.5,-5.5 z" style="fill:#424242;stroke:none" />
    <path id="p013" d="m 22.5,34 -7.5,6.5 7.5,4.5 53,-21 8.5,-5.5 -8.5,-5.5 z" style="fill:none;stroke:black;stroke-width:2;" />
  </g>
</svg>
