/* XPM */
static char * D:\Inventor\InventorLoader\Resources\icons\Sketch2D_xpm[] = {
"16 16 12 1",
" 	c None",
".	c #B99D52",
"+	c #000000",
"@	c #B79B51",
"#	c #ECCC8C",
"$	c #EBB52D",
"%	c #FFFFFF",
"&	c #EBB325",
"*	c #999999",
"=	c #B99D53",
"-	c #050505",
";	c #0000FF",
"                ",
"             .  ",
"++++++++++++@#$ ",
"+%%%%%%%%%%.#&  ",
"+%%*%%%%%%=#&   ",
"+%%*%%%%%.#&+   ",
"+%%*%%%%.#&%+   ",
"+%%*%%%=#&%%+   ",
"+%%*%%%-&%%%+   ",
"+%%*%%%%%%%%+   ",
"+%%*%%%%%%%%+   ",
"+%%*%%%%%%%%+   ",
"+%%;*******%+   ",
"+%%%%%%%%%%%+   ",
"+%%%%%%%%%%%+   ",
"+++++++++++++   "};
