/* XPM */
static char * xpm[] = {
"16 16 7 1",
" 	c None",
".	c #999999",
")	c #EBB325",
"!	c #B99D52",
"{	c #ECCC8C",
"/	c #000000",
"o	c #0066CC",
"                ",
"         .      ",
"         .  !   ",
"         . !{)  ",
"         .!{)   ",
"         !{)    ",
"        !{)     ",
"       !{)      ",
"      !{).      ",
"      /) .    . ",
"         .   .  ",
"         .  .   ",
"         . .    ",
" ........o.     ",
"                ",
"                "};
