/* XPM */
static char * xpm[] = {
"16 16 4 1",
" 	c None",
"#	c #993300",
".	c #CC6600",
"+	c #FF3300",
"  ...++#########",
" ....++++###### ",
".....++++++###  ",
"     ######     ",
"     ######     ",
"     ######     ",
"     ######     ",
"     ######     ",
"     ######     ",
"     ######     ",
"     ######     ",
"     ######     ",
"     ######     ",
"  ...++++++#####",
" ....++++###### ",
".....++#######  "};